<svg xmlns="http://www.w3.org/2000/svg" viewBox="0 0 1920 1080" width="1920" height="1080">
  <defs>
    <style>
      .title-text { font: 700 38px 'Microsoft YaHei', 'Segoe UI', sans-serif; fill: #1F2933; }
      .box-text { font: 700 30px 'Microsoft YaHei', 'Segoe UI', sans-serif; fill: #1F2933; }
    </style>
    <marker id="arrow" viewBox="0 0 14 14" refX="11" refY="7" markerWidth="10" markerHeight="10" orient="auto">
      <path d="M 0 0 L 14 7 L 0 14 z" fill="#667085" />
    </marker>
  </defs>

  <rect x="1360" y="180" width="420" height="560" rx="30" ry="30" fill="#FFFBE8" stroke="#C8A029" stroke-width="4" />
  <text x="1570" y="245" text-anchor="middle" class="title-text">LangGraph Workflow</text>

  <rect x="1420" y="300" width="300" height="88" rx="20" ry="20" fill="#FFFFFF" stroke="#D4B558" stroke-width="3" />
  <text x="1570" y="355" text-anchor="middle" class="box-text">Triage / Route</text>

  <rect x="1420" y="430" width="300" height="88" rx="20" ry="20" fill="#FFFFFF" stroke="#D4B558" stroke-width="3" />
  <text x="1570" y="485" text-anchor="middle" class="box-text">Knowledge / Policy</text>

  <rect x="1420" y="560" width="300" height="100" rx="20" ry="20" fill="#FFFFFF" stroke="#D4B558" stroke-width="3" />
  <text x="1570" y="620" text-anchor="middle" class="box-text">Draft / QA</text>

  <rect x="1420" y="700" width="300" height="88" rx="20" ry="20" fill="#FFFFFF" stroke="#D4B558" stroke-width="3" />
  <text x="1570" y="755" text-anchor="middle" class="box-text">Handoff / Close</text>

  <line x1="1280" y1="545" x2="1360" y2="545" stroke="#667085" stroke-width="6" marker-end="url(#arrow)" />
  <line x1="1570" y1="388" x2="1570" y2="430" stroke="#667085" stroke-width="5" marker-end="url(#arrow)" />
  <line x1="1570" y1="518" x2="1570" y2="560" stroke="#667085" stroke-width="5" marker-end="url(#arrow)" />
  <line x1="1570" y1="660" x2="1570" y2="700" stroke="#667085" stroke-width="5" marker-end="url(#arrow)" />
  <path d="M 1720 610 C 1775 610 1775 474 1720 474" fill="none" stroke="#667085" stroke-width="4" marker-end="url(#arrow)" />
</svg>
