<svg xmlns="http://www.w3.org/2000/svg" viewBox="0 0 1920 1080" width="1920" height="1080">
  <rect width="1920" height="1080" fill="#FFFFFF" />

  <defs>
    <style>
      .title-text { font: 700 38px 'Microsoft YaHei', 'Segoe UI', sans-serif; fill: #1F2933; }
      .box-text { font: 700 32px 'Microsoft YaHei', 'Segoe UI', sans-serif; fill: #1F2933; }
      .sub-text { font: 400 20px 'Microsoft YaHei', 'Segoe UI', sans-serif; fill: #616E7C; }
    </style>
    <marker id="arrow" viewBox="0 0 14 14" refX="11" refY="7" markerWidth="10" markerHeight="10" orient="auto">
      <path d="M 0 0 L 14 7 L 0 14 z" fill="#667085" />
    </marker>
  </defs>

  <rect x="120" y="330" width="300" height="120" rx="26" ry="26" fill="#FFF5DE" stroke="#D99C29" stroke-width="4" />
  <text x="270" y="382" text-anchor="middle" class="box-text">Mailbox</text>
  <text x="270" y="418" text-anchor="middle" class="sub-text">Gmail</text>

  <rect x="120" y="540" width="300" height="120" rx="26" ry="26" fill="#FFF5DE" stroke="#D99C29" stroke-width="4" />
  <text x="270" y="592" text-anchor="middle" class="box-text">Test Lab / API</text>

  <rect x="520" y="250" width="340" height="120" rx="26" ry="26" fill="#EEF4FF" stroke="#4F7DF0" stroke-width="4" />
  <text x="690" y="302" text-anchor="middle" class="box-text">Control Plane</text>
  <text x="690" y="338" text-anchor="middle" class="sub-text">API</text>

  <rect x="520" y="470" width="340" height="150" rx="26" ry="26" fill="#EAF8F0" stroke="#2FA86B" stroke-width="4" />
  <text x="690" y="530" text-anchor="middle" class="box-text">Ticket</text>
  <text x="690" y="570" text-anchor="middle" class="sub-text">Queue / State</text>

  <rect x="520" y="720" width="340" height="120" rx="26" ry="26" fill="#EDF8FF" stroke="#1F9FE0" stroke-width="4" />
  <text x="690" y="772" text-anchor="middle" class="box-text">Console</text>
  <text x="690" y="808" text-anchor="middle" class="sub-text">Dashboard / Tickets / Detail</text>

  <rect x="980" y="470" width="300" height="150" rx="26" ry="26" fill="#FFF2E6" stroke="#DE7B22" stroke-width="4" />
  <text x="1130" y="530" text-anchor="middle" class="box-text">Worker</text>
  <text x="1130" y="570" text-anchor="middle" class="sub-text">Async Execution</text>

  <rect x="1320" y="40" width="500" height="120" rx="26" ry="26" fill="#EAF7FF" stroke="#1397D4" stroke-width="4" />
  <text x="1570" y="92" text-anchor="middle" class="box-text">Trace &amp; Eval / LangSmith</text>
  <text x="1570" y="128" text-anchor="middle" class="sub-text">timeline / trace / quality</text>

  <rect x="1360" y="180" width="420" height="560" rx="30" ry="30" fill="#FFFBE8" stroke="#C8A029" stroke-width="4" />
  <text x="1570" y="245" text-anchor="middle" class="title-text">LangGraph Workflow</text>

  <rect x="1420" y="300" width="300" height="88" rx="20" ry="20" fill="#FFFFFF" stroke="#D4B558" stroke-width="3" />
  <text x="1570" y="355" text-anchor="middle" class="box-text">Triage / Route</text>

  <rect x="1420" y="430" width="300" height="88" rx="20" ry="20" fill="#FFFFFF" stroke="#D4B558" stroke-width="3" />
  <text x="1570" y="485" text-anchor="middle" class="box-text">Knowledge / Policy</text>

  <rect x="1420" y="560" width="300" height="100" rx="20" ry="20" fill="#FFFFFF" stroke="#D4B558" stroke-width="3" />
  <text x="1570" y="620" text-anchor="middle" class="box-text">Draft / QA</text>

  <rect x="1420" y="700" width="300" height="88" rx="20" ry="20" fill="#FFFFFF" stroke="#D4B558" stroke-width="3" />
  <text x="1570" y="755" text-anchor="middle" class="box-text">Handoff / Close</text>

  <rect x="1080" y="840" width="220" height="110" rx="24" ry="24" fill="#F6F7F8" stroke="#8A94A2" stroke-width="4" />
  <text x="1190" y="888" text-anchor="middle" class="box-text">RAG / Policy</text>
  <text x="1190" y="922" text-anchor="middle" class="sub-text">knowledge</text>

  <rect x="1320" y="840" width="240" height="110" rx="24" ry="24" fill="#F6F7F8" stroke="#8A94A2" stroke-width="4" />
  <text x="1440" y="888" text-anchor="middle" class="box-text">Memory</text>
  <text x="1440" y="922" text-anchor="middle" class="sub-text">checkpoint</text>

  <rect x="1580" y="840" width="250" height="110" rx="24" ry="24" fill="#F6F7F8" stroke="#8A94A2" stroke-width="4" />
  <text x="1705" y="888" text-anchor="middle" class="box-text">Human Review</text>
  <text x="1705" y="922" text-anchor="middle" class="sub-text">draft actions</text>

  <line x1="420" y1="390" x2="520" y2="310" stroke="#667085" stroke-width="6" marker-end="url(#arrow)" />
  <line x1="420" y1="600" x2="520" y2="310" stroke="#667085" stroke-width="6" marker-end="url(#arrow)" />
  <line x1="690" y1="370" x2="690" y2="470" stroke="#667085" stroke-width="6" marker-end="url(#arrow)" />
  <line x1="860" y1="545" x2="980" y2="545" stroke="#667085" stroke-width="6" marker-end="url(#arrow)" />
  <line x1="690" y1="720" x2="690" y2="620" stroke="#667085" stroke-width="6" marker-end="url(#arrow)" />
  <line x1="1280" y1="545" x2="1360" y2="545" stroke="#667085" stroke-width="6" marker-end="url(#arrow)" />
  <line x1="1570" y1="180" x2="1570" y2="160" stroke="#667085" stroke-width="6" marker-end="url(#arrow)" />
  <line x1="1570" y1="388" x2="1570" y2="430" stroke="#667085" stroke-width="5" marker-end="url(#arrow)" />
  <line x1="1570" y1="518" x2="1570" y2="560" stroke="#667085" stroke-width="5" marker-end="url(#arrow)" />
  <line x1="1570" y1="660" x2="1570" y2="700" stroke="#667085" stroke-width="5" marker-end="url(#arrow)" />
  <path d="M 1720 610 C 1775 610 1775 474 1720 474" fill="none" stroke="#667085" stroke-width="4" marker-end="url(#arrow)" />
  <line x1="1190" y1="840" x2="1485" y2="660" stroke="#667085" stroke-width="5" marker-end="url(#arrow)" />
  <line x1="1440" y1="840" x2="1570" y2="660" stroke="#667085" stroke-width="5" marker-end="url(#arrow)" />
  <line x1="1705" y1="840" x2="1615" y2="788" stroke="#667085" stroke-width="5" marker-end="url(#arrow)" />
</svg>
