<svg xmlns="http://www.w3.org/2000/svg" viewBox="0 0 1920 1080" width="1920" height="1080">
  <defs>
    <marker id="arrow" viewBox="0 0 14 14" refX="11" refY="7" markerWidth="10" markerHeight="10" orient="auto">
      <path d="M 0 0 L 14 7 L 0 14 z" fill="#5B6470" />
    </marker>
  </defs>

  <line x1="1210" y1="505" x2="1270" y2="505" stroke="#5B6470" stroke-width="6" marker-end="url(#arrow)" />
  <text x="1220" y="478"
        font-family="Microsoft YaHei, Segoe UI, sans-serif"
        font-size="22"
        fill="#5B6470">run workflow</text>

  <rect x="1270" y="220" width="470" height="500" rx="28" ry="28" fill="#FFF9DF" stroke="#C8A029" stroke-width="4" />

  <text x="1505" y="285"
        text-anchor="middle"
        font-family="Microsoft YaHei, Segoe UI, sans-serif"
        font-size="34"
        font-weight="700"
        fill="#1E2A36">LangGraph Workflow</text>

  <rect x="1330" y="320" width="350" height="72" rx="18" ry="18" fill="#FFFFFF" stroke="#D4B558" stroke-width="3" />
  <text x="1505" y="365"
        text-anchor="middle"
        font-family="Microsoft YaHei, Segoe UI, sans-serif"
        font-size="28"
        font-weight="700"
        fill="#1E2A36">Triage / Route</text>

  <line x1="1505" y1="392" x2="1505" y2="430" stroke="#5B6470" stroke-width="5" marker-end="url(#arrow)" />

  <rect x="1330" y="430" width="350" height="72" rx="18" ry="18" fill="#FFFFFF" stroke="#D4B558" stroke-width="3" />
  <text x="1505" y="475"
        text-anchor="middle"
        font-family="Microsoft YaHei, Segoe UI, sans-serif"
        font-size="28"
        font-weight="700"
        fill="#1E2A36">Knowledge / Policy</text>

  <line x1="1505" y1="502" x2="1505" y2="540" stroke="#5B6470" stroke-width="5" marker-end="url(#arrow)" />

  <rect x="1330" y="540" width="350" height="94" rx="18" ry="18" fill="#FFFFFF" stroke="#D4B558" stroke-width="3" />
  <text x="1505" y="585"
        text-anchor="middle"
        font-family="Microsoft YaHei, Segoe UI, sans-serif"
        font-size="28"
        font-weight="700"
        fill="#1E2A36">Draft / QA</text>
  <text x="1505" y="616"
        text-anchor="middle"
        font-family="Microsoft YaHei, Segoe UI, sans-serif"
        font-size="20"
        fill="#5B6470">draft / review / rewrite loop</text>

  <line x1="1505" y1="634" x2="1505" y2="672" stroke="#5B6470" stroke-width="5" marker-end="url(#arrow)" />

  <rect x="1330" y="672" width="350" height="72" rx="18" ry="18" fill="#FFFFFF" stroke="#D4B558" stroke-width="3" />
  <text x="1505" y="717"
        text-anchor="middle"
        font-family="Microsoft YaHei, Segoe UI, sans-serif"
        font-size="28"
        font-weight="700"
        fill="#1E2A36">Handoff / Close</text>

  <path d="M 1680 585 C 1740 585 1740 490 1680 490"
        fill="none" stroke="#5B6470" stroke-width="4" marker-end="url(#arrow)" />
  <text x="1715" y="548"
        text-anchor="middle"
        font-family="Microsoft YaHei, Segoe UI, sans-serif"
        font-size="20"
        fill="#5B6470">rewrite</text>
</svg>
